# xmcd
#
# Track frame offsets:
#	150
#	14546
#	32172
#	47645
#	65501
#	80103
#	98980
#	114547
#	129864
#	144209
#	158924
#
# Disc length: 2326 seconds
#
# Revision: 1
# Processed by: cddbd v1.5.2PL0 Copyright (c) Steve Scherf et al.
# Submitted via: EasyCDDAExtractor 15.3.0.1
#
DISCID=8f09140b
DTITLE=Kany Garcia - Cualquier Dia
DYEAR=2007
DGENRE=Latin
TTITLE0=Esta Soledad
TTITLE1=Estigma De Amor
TTITLE2=Amigo En El Baño
TTITLE3=Hoy Ya Me Voy
TTITLE4=Mujer De Tacones
TTITLE5=A Donde Fue Cecilia
TTITLE6=Te Vuelvo A Ver
TTITLE7=Que Nos Paso
TTITLE8=Carla Se Fue
TTITLE9=Si Ya No Estas Conmigo
TTITLE10=Todo Basta
EXTD=YEAR: 2007
EXTT0=
EXTT1=
EXTT2=
EXTT3=
EXTT4=
EXTT5=
EXTT6=
EXTT7=
EXTT8=
EXTT9=
EXTT10=
PLAYORDER=
